# xmcd
#
# Track frame offsets: 
#        150
#        11947
#        22684
#        33760
#        45555
#        56910
#        68211
#        80495
#        92311
#        103006
#        114823
#        126028
#        137864
#        149133
#        161265
#        171669
#
# Disc length: 2447 seconds
#
# Revision: 0
# Processed by: cddbd v1.5.2PL0 Copyright (c) Steve Scherf et al.
# Submitted via: ExactAudioCopy v1.0b1
#
DISCID=d3098d10
DTITLE=Reno and Smiley - 16 Greatest Hits
DYEAR=2008
DGENRE=Bluegrass
TTITLE0=I Know You're Married
TTITLE1=Charlotte Breakdown
TTITLE2=Excuse Me (I Think I've Got A Heartache)
TTITLE3=Reno Ride
TTITLE4=All I Have Is Just A Memory
TTITLE5=Love Oh Oh Love Oh Please Come Home
TTITLE6=I'm The Talk Of The Town
TTITLE7=Drifting With The Tide
TTITLE8=Let's Live For Tonight
TTITLE9=Choking The Strings
TTITLE10=Don't Let Your Sweet Love Die
TTITLE11=Banjo Riff
TTITLE12=Country Boy Rock n' Roll
TTITLE13=Emotions
TTITLE14=Trail Of Sorrow
TTITLE15=Maybe You Will Change Your Mind
EXTD=
EXTT0=
EXTT1=
EXTT2=
EXTT3=
EXTT4=
EXTT5=
EXTT6=
EXTT7=
EXTT8=
EXTT9=
EXTT10=
EXTT11=
EXTT12=
EXTT13=
EXTT14=
EXTT15=
PLAYORDER=
